<svg height="33" width="24" xmlns="http://www.w3.org/2000/svg"><g fill="#fff"><path d="m7.646 2.18-4.926 4.948h6.924v19.917l2.42 2.39 2.422-2.39v-19.917h6.924l-4.886-4.948z"/><path d="m7.348 8.973h-4.672v11.195l3.568 3.564 3.356-3.228-2.21-2.097v-9.434z"/><path d="m17.713 0h-11.256l-6.457 6.332v14.927l12.021 11.741 11.979-11.699v-15.095zm5.055 20.714-10.704 10.483-10.79-10.525v-13.88l5.777-5.618h10.069l5.65 5.493v14.047z"/><path d="m16.694 18.365-2.124 2.097 3.271 3.229 3.568-3.565v-11.153h-4.672v9.392z"/></g></svg>