<svg width="160" height="47" viewBox="0 0 160 47" fill="none" xmlns="http://www.w3.org/2000/svg">
<path fill-rule="evenodd" clip-rule="evenodd" d="M89.1269 15.4111C90.1855 15.0483 90.8782 14.1158 90.8782 13.0175L90.8821 9.86506C90.884 8.56195 89.9859 7.62167 88.8745 7.34662C88.1427 7.16519 87.4207 7.21591 86.6087 7.21201L81.3022 7.21006V21.2868H84.2979V16.012H86.2252L88.1173 21.2849H91.6178L89.1269 15.4111ZM87.8864 12.2567C87.8864 12.9668 87.4325 13.2828 86.8357 13.2887L84.2979 13.2906V9.9509L86.8357 9.94895C87.3679 9.9548 87.8884 10.2104 87.8884 10.86L87.8864 12.2567ZM55.5053 21.2868L51.633 7.21006H55.0298L57.1215 16.3338L58.5988 7.21006H62.5023L63.9757 16.3338L66.0694 7.21006H69.4681L65.5939 21.2868H62.1247L60.5496 12.3582L58.9784 21.2868H55.5053ZM75.8274 7.21006H72.3445L68.4702 21.2868H71.6538L72.3073 18.3958H75.8645L76.52 21.2868H79.7016L75.8274 7.21006ZM72.8884 16.012L74.0859 10.6805L75.2854 16.012H72.8884ZM145.094 7.21006H147.978V21.2868H145.02L140.49 12.8771V21.2849H137.608V7.21006H140.564L145.094 15.6179V7.21006ZM132.123 7.21006H135.117V21.2868H132.123V7.21006ZM160 12.998V20.45C159.255 21.0001 158.401 21.4039 156.924 21.4039H154.549C151.809 21.4039 149.774 19.3302 149.774 16.3709L149.776 12.3074C149.776 12.0655 149.782 11.8217 149.802 11.5974C150.064 8.75117 152.062 7.09497 154.828 7.09692L159.785 7.09497V10.0992H154.987C153.363 10.1011 152.77 11.0628 152.77 12.3952V15.9242C152.77 17.2195 153.202 18.3978 154.903 18.3978H156.092C156.406 18.3978 156.711 18.3743 157.006 18.3295C157.006 17.3833 157.006 16.6011 157.006 15.655H155.245V12.998H160ZM125.897 7.21006H129.632V21.2888H126.77V12.6722L124.606 21.2849H124.398L124.4 21.2868H121.557L119.393 12.6742V21.2888H116.53V7.21201H120.266L123.081 17.6935L125.897 7.21006ZM107.764 7.21006L103.892 21.2868H107.074L107.729 18.3958H111.286L111.942 21.2868H115.127L111.253 7.21006H107.764ZM108.31 16.012L109.51 10.6805L110.709 16.012H108.31ZM102.924 20.4519C102.182 21.002 101.327 21.4058 99.8515 21.4058H97.4742C94.7387 21.4058 92.7018 19.3322 92.7018 16.3728L92.7038 12.3094C92.7038 12.0675 92.7096 11.8236 92.7292 11.5993C92.9894 8.75312 94.9872 7.09692 97.752 7.09887L102.71 7.09692V10.1011H97.9125C96.2884 10.1031 95.6955 11.0648 95.6955 12.3972V15.9261C95.6955 17.2214 96.1299 18.3997 97.8264 18.3997H99.016C99.3291 18.3997 99.6343 18.3763 99.9298 18.3314C99.9298 17.3853 99.9298 16.603 99.9298 15.6569H98.1688V12.998H102.924V20.4519ZM53.8949 25.7015H62.8976V28.4384H56.9102V31.1402H61.9682V33.883H56.9102V39.7821H53.8949V25.7015ZM101.589 25.7034H110.592V28.4403H104.604V31.1422H109.662V33.8849H104.604V37.0433H110.592V39.7841H101.589V25.7034ZM94.3317 25.7015H99.3271V28.4403H94.4941C92.8583 28.4403 92.2616 29.5659 92.2616 30.9022V34.597C92.2616 35.8981 92.6959 37.0745 94.408 37.0745H95.6055C95.8482 37.0745 96.0888 37.0706 96.3217 37.0472V34.2068H94.7505V31.4855H99.3271V39.1247C98.6247 39.5968 97.797 39.9304 96.4469 39.9304H94.0519C91.2969 39.9284 89.2443 37.8528 89.2463 34.8896V30.7949C89.2463 27.6795 91.1169 25.6995 94.3317 25.7015ZM87.2016 31.4075V28.8071C87.1977 26.948 85.7497 25.7034 83.9104 25.7034H77.1266V39.786H80.1419V34.5111H82.2472L84.1452 39.786H87.6633L85.2762 34.1795C86.323 33.6918 87.1996 32.6989 87.2016 31.4075ZM84.1902 30.9705C84.1902 31.4114 83.8302 31.7723 83.3919 31.7723H80.1516V28.4403H83.3919C83.8322 28.4403 84.1902 28.8012 84.1902 29.2421V30.9705ZM70.4191 25.559C70.2097 25.559 68.9085 25.559 68.7031 25.559C65.9657 25.559 64.2555 27.303 64.2555 30.0263V32.7281V32.732V35.4592C64.2555 38.1825 65.9657 39.9265 68.7031 39.9265C69.2177 39.9265 69.8986 39.9265 70.4191 39.9265C73.1565 39.9265 74.8666 38.1825 74.8666 35.4592V32.734V32.7301V30.0283C74.8666 27.303 73.1565 25.559 70.4191 25.559ZM71.8729 35.6738C71.8729 36.5048 71.1939 37.1896 70.3663 37.1896C69.5934 37.1896 69.521 37.1896 68.7559 37.1896C67.9263 37.1896 67.2493 36.5068 67.2493 35.6738L67.2454 32.732L67.2493 29.8156C67.2493 28.9846 67.9282 28.2999 68.7559 28.2999C68.7755 28.2999 68.7931 28.2999 68.8127 28.2999C69.4936 28.2999 70.3036 28.2999 70.3095 28.2999C70.3291 28.2999 70.3487 28.2999 70.3682 28.2999C71.1979 28.2999 71.8749 28.9827 71.8749 29.8156L71.8788 32.732L71.8729 35.6738ZM14.3953 19.2639L12.5502 21.9267L22.1634 26.2828L14.3953 19.2639ZM24.979 26.2828L34.5922 21.9267L32.7471 19.2639L24.979 26.2828ZM35.3201 22.9918L26.922 25.9453L36.4863 24.687L35.3201 22.9918ZM10.6561 24.6851L20.2204 25.9433L11.8203 22.9899L10.6561 24.6851ZM39.7129 32.3282C37.9558 35.5119 35.281 38.1201 32.0427 39.7977C32.5299 40.4766 33.2988 40.9233 34.512 41.0189C37.0909 41.2218 39.5309 40.3888 41.1001 39.2047C44.855 35.0418 47.1424 29.5367 47.1424 23.501C47.1424 18.6299 45.6533 14.1021 43.1038 10.3489C41.4895 8.50147 38.6054 6.70481 35.8191 6.89599C34.8505 6.96231 33.9289 7.27639 33.0699 7.77579C38.4097 10.9907 41.9846 16.8313 41.9846 23.501C41.9846 24.6851 41.8711 25.84 41.6558 26.9617H14.7338V28.1711H5.76635C5.37305 26.6788 5.15978 25.1143 5.15978 23.501C5.15978 16.8332 8.73268 10.9907 14.0744 7.77579C13.2135 7.27639 12.2919 6.96231 11.3253 6.89599C8.54093 6.70286 5.65677 8.49757 4.04251 10.343C1.49099 14.0982 0 18.626 0 23.501C0 29.5367 2.28736 35.0418 6.04224 39.2047C7.61346 40.3908 10.0534 41.2218 12.6304 41.0189C13.8435 40.9233 14.6125 40.4766 15.0997 39.7977C11.8419 38.1103 9.15337 35.4807 7.39822 32.2717C5.95615 31.0778 5.00324 29.5757 4.62951 28.1711C6.93644 32.139 10.4409 33.2548 14.7377 33.961V34.8506L17.2169 35.7694C17.2169 38.9804 16.2933 41.9358 12.8965 41.9358C10.3528 41.9358 7.94805 40.9077 6.40423 39.5929C10.705 44.1499 16.8079 47 23.5741 47C30.3403 47 36.4432 44.1519 40.744 39.5929C39.2002 40.9097 36.7954 41.9358 34.2518 41.9358C30.8549 41.9358 29.9314 38.9784 29.9314 35.7694C32.614 33.5611 37.6564 31.821 41.83 31.3158L43.4012 26.9597L42.2194 31.7996L39.7129 32.3282ZM11.7342 6.0396C16.579 6.0396 20.6782 12.1475 21.4355 16.9405L15.5126 15.1497L23.5722 26.8056L31.6318 15.1497L25.7089 16.9405C26.4661 12.1475 30.5634 6.0396 35.4101 6.0396C38.2727 6.0396 41.1999 8.00988 42.8475 9.97626C38.578 3.94447 31.5339 0 23.5722 0C15.5987 0 8.54484 3.95617 4.27927 10.0036C5.92484 8.03524 8.8716 6.0396 11.7342 6.0396Z" fill="#010000"/>
</svg>
