<svg xmlns="http://www.w3.org/2000/svg" xmlns:xlink="http://www.w3.org/1999/xlink" version="1.1" x="0px" y="0px" viewBox="0 0 100 100" enable-background="new 0 0 100 100" xml:space="preserve"><path d="M45.264,60.825c-0.2,0.077-0.408,0.114-0.616,0.114c-0.418,0-0.831-0.152-1.151-0.445c-0.479-0.436-0.67-1.104-0.494-1.728  l1.221-4.327c-5.317,7.252-10.752,11.975-19.48,11.975c-9.15,0-16.595-7.445-16.595-16.595c0-3.267,0.952-6.314,2.588-8.885  l0.391,0.784c0.265,0.53,0.785,0.885,1.375,0.939c0.051,0.004,0.103,0.007,0.155,0.007c0.534,0,1.042-0.251,1.366-0.683l7.746-10.31  c0.389-0.518,0.452-1.211,0.163-1.79s-0.881-0.945-1.528-0.946L7.508,28.926c0,0,0,0-0.001,0c-0.592,0-1.142,0.306-1.453,0.809  c-0.312,0.504-0.34,1.133-0.076,1.663l1.651,3.309C4.066,38.737,1.9,44.03,1.9,49.819c0,12.595,10.247,22.843,22.843,22.843  c6.753,0,12.588-2.274,17.839-6.953c1.918-1.71,3.998-3.92,5.638-6.008l-0.01-0.014L45.264,60.825z"></path><path d="M68.594,67.006L64.1,55.047c-0.209-0.555-0.689-0.961-1.271-1.076c-0.582-0.113-1.181,0.081-1.583,0.516l-1.85,1.994  c-1.521-2.051-3.002-4.308-4.526-6.66l0.001-0.001l-3.747-5.692c-2.59-3.79-5.313-7.321-8.541-10.197  c-5.251-4.679-11.086-6.954-17.839-6.954c-0.288,0-0.573,0.007-0.858,0.018c0.413,0.396,0.763,0.866,1.029,1.399  c0.777,1.558,0.697,3.364-0.183,4.833c0.004,0,0.008,0,0.012,0c10.468,0,16.2,6.789,22.67,16.595l3.71,5.692  c1.273,1.928,2.581,3.824,3.964,5.617l-1.684,1.814c-0.402,0.435-0.553,1.047-0.395,1.617s0.6,1.02,1.169,1.186l12.378,3.615  c0.158,0.045,0.32,0.068,0.479,0.068c0.008,0,0.016,0,0.023,0c0.936-0.01,1.69-0.771,1.69-1.709  C68.75,67.466,68.693,67.225,68.594,67.006z"></path><path d="M91.317,33.667c-4.315-4.314-10.052-6.69-16.152-6.69c-5.321,0-9.577,1.732-13.19,4.461l-1.949-1.775  c-0.438-0.398-1.051-0.542-1.621-0.379c-0.569,0.163-1.014,0.609-1.175,1.179l-3.503,12.41c-0.176,0.624,0.016,1.292,0.494,1.728  c0.32,0.292,0.732,0.446,1.152,0.446c0.207,0,0.415-0.038,0.615-0.115l12.03-4.646c0.552-0.213,0.955-0.698,1.063-1.28  c0.109-0.582-0.091-1.179-0.529-1.578l-1.838-1.674c2.447-1.597,5.197-2.529,8.45-2.529c9.149,0,16.595,7.444,16.595,16.595  c0,9.149-7.445,16.595-16.595,16.595c-1.187,0-2.305-0.126-3.366-0.361c0.188,0.535,0.283,1.094,0.283,1.668  c0,1.794-0.953,3.38-2.378,4.273c1.69,0.433,3.503,0.668,5.461,0.668c12.595,0,22.843-10.248,22.843-22.843  C98.008,43.717,95.632,37.981,91.317,33.667z"></path></svg>